<?xml version="1.0" encoding="utf-8" standalone="no"?>
<!DOCTYPE svg PUBLIC "-//W3C//DTD SVG 1.1//EN"
  "http://www.w3.org/Graphics/SVG/1.1/DTD/svg11.dtd">
<!-- Created with matplotlib (https://matplotlib.org/) -->
<svg height="428.4pt" version="1.1" viewBox="0 0 468 428.4" width="468pt" xmlns="http://www.w3.org/2000/svg" xmlns:xlink="http://www.w3.org/1999/xlink">
 <defs>
  <style type="text/css">
*{stroke-linecap:butt;stroke-linejoin:round;}
  </style>
 </defs>
 <g id="figure_1">
  <g id="patch_1">
   <path d="M 0 428.4 
L 468 428.4 
L 468 0 
L 0 0 
z
" style="fill:#ffffff;"/>
  </g>
  <g id="axes_1">
   <g id="patch_2">
    <path d="M 32.47 386.44 
L 457.2 386.44 
L 457.2 25.44 
L 32.47 25.44 
z
" style="fill:#ffffff;"/>
   </g>
   <g id="matplotlib.axis_1">
    <g id="xtick_1">
     <g id="line2d_1">
      <path clip-path="url(#pe1f4326c64)" d="M 51.775909 386.44 
L 51.775909 25.44 
" style="fill:none;stroke:#d3d3d3;stroke-linecap:square;stroke-opacity:0.75;stroke-width:0.8;"/>
     </g>
     <g id="line2d_2">
      <defs>
       <path d="M 0 0 
L 0 3.5 
" id="m9f1fcbecbc" style="stroke:#000000;stroke-width:0.8;"/>
      </defs>
      <g>
       <use style="stroke:#000000;stroke-width:0.8;" x="51.775909" xlink:href="#m9f1fcbecbc" y="386.44"/>
      </g>
     </g>
     <g id="text_1">
      <!-- 0 -->
      <defs>
       <path d="M 31.78125 66.40625 
Q 24.171875 66.40625 20.328125 58.90625 
Q 16.5 51.421875 16.5 36.375 
Q 16.5 21.390625 20.328125 13.890625 
Q 24.171875 6.390625 31.78125 6.390625 
Q 39.453125 6.390625 43.28125 13.890625 
Q 47.125 21.390625 47.125 36.375 
Q 47.125 51.421875 43.28125 58.90625 
Q 39.453125 66.40625 31.78125 66.40625 
z
M 31.78125 74.21875 
Q 44.046875 74.21875 50.515625 64.515625 
Q 56.984375 54.828125 56.984375 36.375 
Q 56.984375 17.96875 50.515625 8.265625 
Q 44.046875 -1.421875 31.78125 -1.421875 
Q 19.53125 -1.421875 13.0625 8.265625 
Q 6.59375 17.96875 6.59375 36.375 
Q 6.59375 54.828125 13.0625 64.515625 
Q 19.53125 74.21875 31.78125 74.21875 
z
" id="DejaVuSans-48"/>
      </defs>
      <g transform="translate(48.594659 401.038438)scale(0.1 -0.1)">
       <use xlink:href="#DejaVuSans-48"/>
      </g>
     </g>
    </g>
    <g id="xtick_2">
     <g id="line2d_3">
      <path clip-path="url(#pe1f4326c64)" d="M 128.999545 386.44 
L 128.999545 25.44 
" style="fill:none;stroke:#d3d3d3;stroke-linecap:square;stroke-opacity:0.75;stroke-width:0.8;"/>
     </g>
     <g id="line2d_4">
      <g>
       <use style="stroke:#000000;stroke-width:0.8;" x="128.999545" xlink:href="#m9f1fcbecbc" y="386.44"/>
      </g>
     </g>
     <g id="text_2">
      <!-- 100 -->
      <defs>
       <path d="M 12.40625 8.296875 
L 28.515625 8.296875 
L 28.515625 63.921875 
L 10.984375 60.40625 
L 10.984375 69.390625 
L 28.421875 72.90625 
L 38.28125 72.90625 
L 38.28125 8.296875 
L 54.390625 8.296875 
L 54.390625 0 
L 12.40625 0 
z
" id="DejaVuSans-49"/>
      </defs>
      <g transform="translate(119.455795 401.038438)scale(0.1 -0.1)">
       <use xlink:href="#DejaVuSans-49"/>
       <use x="63.623047" xlink:href="#DejaVuSans-48"/>
       <use x="127.246094" xlink:href="#DejaVuSans-48"/>
      </g>
     </g>
    </g>
    <g id="xtick_3">
     <g id="line2d_5">
      <path clip-path="url(#pe1f4326c64)" d="M 206.223182 386.44 
L 206.223182 25.44 
" style="fill:none;stroke:#d3d3d3;stroke-linecap:square;stroke-opacity:0.75;stroke-width:0.8;"/>
     </g>
     <g id="line2d_6">
      <g>
       <use style="stroke:#000000;stroke-width:0.8;" x="206.223182" xlink:href="#m9f1fcbecbc" y="386.44"/>
      </g>
     </g>
     <g id="text_3">
      <!-- 200 -->
      <defs>
       <path d="M 19.1875 8.296875 
L 53.609375 8.296875 
L 53.609375 0 
L 7.328125 0 
L 7.328125 8.296875 
Q 12.9375 14.109375 22.625 23.890625 
Q 32.328125 33.6875 34.8125 36.53125 
Q 39.546875 41.84375 41.421875 45.53125 
Q 43.3125 49.21875 43.3125 52.78125 
Q 43.3125 58.59375 39.234375 62.25 
Q 35.15625 65.921875 28.609375 65.921875 
Q 23.96875 65.921875 18.8125 64.3125 
Q 13.671875 62.703125 7.8125 59.421875 
L 7.8125 69.390625 
Q 13.765625 71.78125 18.9375 73 
Q 24.125 74.21875 28.421875 74.21875 
Q 39.75 74.21875 46.484375 68.546875 
Q 53.21875 62.890625 53.21875 53.421875 
Q 53.21875 48.921875 51.53125 44.890625 
Q 49.859375 40.875 45.40625 35.40625 
Q 44.1875 33.984375 37.640625 27.21875 
Q 31.109375 20.453125 19.1875 8.296875 
z
" id="DejaVuSans-50"/>
      </defs>
      <g transform="translate(196.679432 401.038438)scale(0.1 -0.1)">
       <use xlink:href="#DejaVuSans-50"/>
       <use x="63.623047" xlink:href="#DejaVuSans-48"/>
       <use x="127.246094" xlink:href="#DejaVuSans-48"/>
      </g>
     </g>
    </g>
    <g id="xtick_4">
     <g id="line2d_7">
      <path clip-path="url(#pe1f4326c64)" d="M 283.446818 386.44 
L 283.446818 25.44 
" style="fill:none;stroke:#d3d3d3;stroke-linecap:square;stroke-opacity:0.75;stroke-width:0.8;"/>
     </g>
     <g id="line2d_8">
      <g>
       <use style="stroke:#000000;stroke-width:0.8;" x="283.446818" xlink:href="#m9f1fcbecbc" y="386.44"/>
      </g>
     </g>
     <g id="text_4">
      <!-- 300 -->
      <defs>
       <path d="M 40.578125 39.3125 
Q 47.65625 37.796875 51.625 33 
Q 55.609375 28.21875 55.609375 21.1875 
Q 55.609375 10.40625 48.1875 4.484375 
Q 40.765625 -1.421875 27.09375 -1.421875 
Q 22.515625 -1.421875 17.65625 -0.515625 
Q 12.796875 0.390625 7.625 2.203125 
L 7.625 11.71875 
Q 11.71875 9.328125 16.59375 8.109375 
Q 21.484375 6.890625 26.8125 6.890625 
Q 36.078125 6.890625 40.9375 10.546875 
Q 45.796875 14.203125 45.796875 21.1875 
Q 45.796875 27.640625 41.28125 31.265625 
Q 36.765625 34.90625 28.71875 34.90625 
L 20.21875 34.90625 
L 20.21875 43.015625 
L 29.109375 43.015625 
Q 36.375 43.015625 40.234375 45.921875 
Q 44.09375 48.828125 44.09375 54.296875 
Q 44.09375 59.90625 40.109375 62.90625 
Q 36.140625 65.921875 28.71875 65.921875 
Q 24.65625 65.921875 20.015625 65.03125 
Q 15.375 64.15625 9.8125 62.3125 
L 9.8125 71.09375 
Q 15.4375 72.65625 20.34375 73.4375 
Q 25.25 74.21875 29.59375 74.21875 
Q 40.828125 74.21875 47.359375 69.109375 
Q 53.90625 64.015625 53.90625 55.328125 
Q 53.90625 49.265625 50.4375 45.09375 
Q 46.96875 40.921875 40.578125 39.3125 
z
" id="DejaVuSans-51"/>
      </defs>
      <g transform="translate(273.903068 401.038438)scale(0.1 -0.1)">
       <use xlink:href="#DejaVuSans-51"/>
       <use x="63.623047" xlink:href="#DejaVuSans-48"/>
       <use x="127.246094" xlink:href="#DejaVuSans-48"/>
      </g>
     </g>
    </g>
    <g id="xtick_5">
     <g id="line2d_9">
      <path clip-path="url(#pe1f4326c64)" d="M 360.670455 386.44 
L 360.670455 25.44 
" style="fill:none;stroke:#d3d3d3;stroke-linecap:square;stroke-opacity:0.75;stroke-width:0.8;"/>
     </g>
     <g id="line2d_10">
      <g>
       <use style="stroke:#000000;stroke-width:0.8;" x="360.670455" xlink:href="#m9f1fcbecbc" y="386.44"/>
      </g>
     </g>
     <g id="text_5">
      <!-- 400 -->
      <defs>
       <path d="M 37.796875 64.3125 
L 12.890625 25.390625 
L 37.796875 25.390625 
z
M 35.203125 72.90625 
L 47.609375 72.90625 
L 47.609375 25.390625 
L 58.015625 25.390625 
L 58.015625 17.1875 
L 47.609375 17.1875 
L 47.609375 0 
L 37.796875 0 
L 37.796875 17.1875 
L 4.890625 17.1875 
L 4.890625 26.703125 
z
" id="DejaVuSans-52"/>
      </defs>
      <g transform="translate(351.126705 401.038438)scale(0.1 -0.1)">
       <use xlink:href="#DejaVuSans-52"/>
       <use x="63.623047" xlink:href="#DejaVuSans-48"/>
       <use x="127.246094" xlink:href="#DejaVuSans-48"/>
      </g>
     </g>
    </g>
    <g id="xtick_6">
     <g id="line2d_11">
      <path clip-path="url(#pe1f4326c64)" d="M 437.894091 386.44 
L 437.894091 25.44 
" style="fill:none;stroke:#d3d3d3;stroke-linecap:square;stroke-opacity:0.75;stroke-width:0.8;"/>
     </g>
     <g id="line2d_12">
      <g>
       <use style="stroke:#000000;stroke-width:0.8;" x="437.894091" xlink:href="#m9f1fcbecbc" y="386.44"/>
      </g>
     </g>
     <g id="text_6">
      <!-- 500 -->
      <defs>
       <path d="M 10.796875 72.90625 
L 49.515625 72.90625 
L 49.515625 64.59375 
L 19.828125 64.59375 
L 19.828125 46.734375 
Q 21.96875 47.46875 24.109375 47.828125 
Q 26.265625 48.1875 28.421875 48.1875 
Q 40.625 48.1875 47.75 41.5 
Q 54.890625 34.8125 54.890625 23.390625 
Q 54.890625 11.625 47.5625 5.09375 
Q 40.234375 -1.421875 26.90625 -1.421875 
Q 22.3125 -1.421875 17.546875 -0.640625 
Q 12.796875 0.140625 7.71875 1.703125 
L 7.71875 11.625 
Q 12.109375 9.234375 16.796875 8.0625 
Q 21.484375 6.890625 26.703125 6.890625 
Q 35.15625 6.890625 40.078125 11.328125 
Q 45.015625 15.765625 45.015625 23.390625 
Q 45.015625 31 40.078125 35.4375 
Q 35.15625 39.890625 26.703125 39.890625 
Q 22.75 39.890625 18.8125 39.015625 
Q 14.890625 38.140625 10.796875 36.28125 
z
" id="DejaVuSans-53"/>
      </defs>
      <g transform="translate(428.350341 401.038438)scale(0.1 -0.1)">
       <use xlink:href="#DejaVuSans-53"/>
       <use x="63.623047" xlink:href="#DejaVuSans-48"/>
       <use x="127.246094" xlink:href="#DejaVuSans-48"/>
      </g>
     </g>
    </g>
    <g id="xtick_7">
     <g id="line2d_13">
      <path clip-path="url(#pe1f4326c64)" d="M 36.331182 386.44 
L 36.331182 25.44 
" style="fill:none;stroke:#d3d3d3;stroke-dasharray:2.96,1.28;stroke-dashoffset:0;stroke-opacity:0.75;stroke-width:0.8;"/>
     </g>
    </g>
    <g id="xtick_8">
     <g id="line2d_14">
      <path clip-path="url(#pe1f4326c64)" d="M 67.220636 386.44 
L 67.220636 25.44 
" style="fill:none;stroke:#d3d3d3;stroke-dasharray:2.96,1.28;stroke-dashoffset:0;stroke-opacity:0.75;stroke-width:0.8;"/>
     </g>
    </g>
    <g id="xtick_9">
     <g id="line2d_15">
      <path clip-path="url(#pe1f4326c64)" d="M 82.665364 386.44 
L 82.665364 25.44 
" style="fill:none;stroke:#d3d3d3;stroke-dasharray:2.96,1.28;stroke-dashoffset:0;stroke-opacity:0.75;stroke-width:0.8;"/>
     </g>
    </g>
    <g id="xtick_10">
     <g id="line2d_16">
      <path clip-path="url(#pe1f4326c64)" d="M 98.110091 386.44 
L 98.110091 25.44 
" style="fill:none;stroke:#d3d3d3;stroke-dasharray:2.96,1.28;stroke-dashoffset:0;stroke-opacity:0.75;stroke-width:0.8;"/>
     </g>
    </g>
    <g id="xtick_11">
     <g id="line2d_17">
      <path clip-path="url(#pe1f4326c64)" d="M 113.554818 386.44 
L 113.554818 25.44 
" style="fill:none;stroke:#d3d3d3;stroke-dasharray:2.96,1.28;stroke-dashoffset:0;stroke-opacity:0.75;stroke-width:0.8;"/>
     </g>
    </g>
    <g id="xtick_12">
     <g id="line2d_18">
      <path clip-path="url(#pe1f4326c64)" d="M 144.444273 386.44 
L 144.444273 25.44 
" style="fill:none;stroke:#d3d3d3;stroke-dasharray:2.96,1.28;stroke-dashoffset:0;stroke-opacity:0.75;stroke-width:0.8;"/>
     </g>
    </g>
    <g id="xtick_13">
     <g id="line2d_19">
      <path clip-path="url(#pe1f4326c64)" d="M 159.889 386.44 
L 159.889 25.44 
" style="fill:none;stroke:#d3d3d3;stroke-dasharray:2.96,1.28;stroke-dashoffset:0;stroke-opacity:0.75;stroke-width:0.8;"/>
     </g>
    </g>
    <g id="xtick_14">
     <g id="line2d_20">
      <path clip-path="url(#pe1f4326c64)" d="M 175.333727 386.44 
L 175.333727 25.44 
" style="fill:none;stroke:#d3d3d3;stroke-dasharray:2.96,1.28;stroke-dashoffset:0;stroke-opacity:0.75;stroke-width:0.8;"/>
     </g>
    </g>
    <g id="xtick_15">
     <g id="line2d_21">
      <path clip-path="url(#pe1f4326c64)" d="M 190.778455 386.44 
L 190.778455 25.44 
" style="fill:none;stroke:#d3d3d3;stroke-dasharray:2.96,1.28;stroke-dashoffset:0;stroke-opacity:0.75;stroke-width:0.8;"/>
     </g>
    </g>
    <g id="xtick_16">
     <g id="line2d_22">
      <path clip-path="url(#pe1f4326c64)" d="M 221.667909 386.44 
L 221.667909 25.44 
" style="fill:none;stroke:#d3d3d3;stroke-dasharray:2.96,1.28;stroke-dashoffset:0;stroke-opacity:0.75;stroke-width:0.8;"/>
     </g>
    </g>
    <g id="xtick_17">
     <g id="line2d_23">
      <path clip-path="url(#pe1f4326c64)" d="M 237.112636 386.44 
L 237.112636 25.44 
" style="fill:none;stroke:#d3d3d3;stroke-dasharray:2.96,1.28;stroke-dashoffset:0;stroke-opacity:0.75;stroke-width:0.8;"/>
     </g>
    </g>
    <g id="xtick_18">
     <g id="line2d_24">
      <path clip-path="url(#pe1f4326c64)" d="M 252.557364 386.44 
L 252.557364 25.44 
" style="fill:none;stroke:#d3d3d3;stroke-dasharray:2.96,1.28;stroke-dashoffset:0;stroke-opacity:0.75;stroke-width:0.8;"/>
     </g>
    </g>
    <g id="xtick_19">
     <g id="line2d_25">
      <path clip-path="url(#pe1f4326c64)" d="M 268.002091 386.44 
L 268.002091 25.44 
" style="fill:none;stroke:#d3d3d3;stroke-dasharray:2.96,1.28;stroke-dashoffset:0;stroke-opacity:0.75;stroke-width:0.8;"/>
     </g>
    </g>
    <g id="xtick_20">
     <g id="line2d_26">
      <path clip-path="url(#pe1f4326c64)" d="M 298.891545 386.44 
L 298.891545 25.44 
" style="fill:none;stroke:#d3d3d3;stroke-dasharray:2.96,1.28;stroke-dashoffset:0;stroke-opacity:0.75;stroke-width:0.8;"/>
     </g>
    </g>
    <g id="xtick_21">
     <g id="line2d_27">
      <path clip-path="url(#pe1f4326c64)" d="M 314.336273 386.44 
L 314.336273 25.44 
" style="fill:none;stroke:#d3d3d3;stroke-dasharray:2.96,1.28;stroke-dashoffset:0;stroke-opacity:0.75;stroke-width:0.8;"/>
     </g>
    </g>
    <g id="xtick_22">
     <g id="line2d_28">
      <path clip-path="url(#pe1f4326c64)" d="M 329.781 386.44 
L 329.781 25.44 
" style="fill:none;stroke:#d3d3d3;stroke-dasharray:2.96,1.28;stroke-dashoffset:0;stroke-opacity:0.75;stroke-width:0.8;"/>
     </g>
    </g>
    <g id="xtick_23">
     <g id="line2d_29">
      <path clip-path="url(#pe1f4326c64)" d="M 345.225727 386.44 
L 345.225727 25.44 
" style="fill:none;stroke:#d3d3d3;stroke-dasharray:2.96,1.28;stroke-dashoffset:0;stroke-opacity:0.75;stroke-width:0.8;"/>
     </g>
    </g>
    <g id="xtick_24">
     <g id="line2d_30">
      <path clip-path="url(#pe1f4326c64)" d="M 376.115182 386.44 
L 376.115182 25.44 
" style="fill:none;stroke:#d3d3d3;stroke-dasharray:2.96,1.28;stroke-dashoffset:0;stroke-opacity:0.75;stroke-width:0.8;"/>
     </g>
    </g>
    <g id="xtick_25">
     <g id="line2d_31">
      <path clip-path="url(#pe1f4326c64)" d="M 391.559909 386.44 
L 391.559909 25.44 
" style="fill:none;stroke:#d3d3d3;stroke-dasharray:2.96,1.28;stroke-dashoffset:0;stroke-opacity:0.75;stroke-width:0.8;"/>
     </g>
    </g>
    <g id="xtick_26">
     <g id="line2d_32">
      <path clip-path="url(#pe1f4326c64)" d="M 407.004636 386.44 
L 407.004636 25.44 
" style="fill:none;stroke:#d3d3d3;stroke-dasharray:2.96,1.28;stroke-dashoffset:0;stroke-opacity:0.75;stroke-width:0.8;"/>
     </g>
    </g>
    <g id="xtick_27">
     <g id="line2d_33">
      <path clip-path="url(#pe1f4326c64)" d="M 422.449364 386.44 
L 422.449364 25.44 
" style="fill:none;stroke:#d3d3d3;stroke-dasharray:2.96,1.28;stroke-dashoffset:0;stroke-opacity:0.75;stroke-width:0.8;"/>
     </g>
    </g>
    <g id="xtick_28">
     <g id="line2d_34">
      <path clip-path="url(#pe1f4326c64)" d="M 453.338818 386.44 
L 453.338818 25.44 
" style="fill:none;stroke:#d3d3d3;stroke-dasharray:2.96,1.28;stroke-dashoffset:0;stroke-opacity:0.75;stroke-width:0.8;"/>
     </g>
    </g>
    <g id="text_7">
     <!-- iterations -->
     <defs>
      <path d="M 9.421875 54.6875 
L 18.40625 54.6875 
L 18.40625 0 
L 9.421875 0 
z
M 9.421875 75.984375 
L 18.40625 75.984375 
L 18.40625 64.59375 
L 9.421875 64.59375 
z
" id="DejaVuSans-105"/>
      <path d="M 18.3125 70.21875 
L 18.3125 54.6875 
L 36.8125 54.6875 
L 36.8125 47.703125 
L 18.3125 47.703125 
L 18.3125 18.015625 
Q 18.3125 11.328125 20.140625 9.421875 
Q 21.96875 7.515625 27.59375 7.515625 
L 36.8125 7.515625 
L 36.8125 0 
L 27.59375 0 
Q 17.1875 0 13.234375 3.875 
Q 9.28125 7.765625 9.28125 18.015625 
L 9.28125 47.703125 
L 2.6875 47.703125 
L 2.6875 54.6875 
L 9.28125 54.6875 
L 9.28125 70.21875 
z
" id="DejaVuSans-116"/>
      <path d="M 56.203125 29.59375 
L 56.203125 25.203125 
L 14.890625 25.203125 
Q 15.484375 15.921875 20.484375 11.0625 
Q 25.484375 6.203125 34.421875 6.203125 
Q 39.59375 6.203125 44.453125 7.46875 
Q 49.3125 8.734375 54.109375 11.28125 
L 54.109375 2.78125 
Q 49.265625 0.734375 44.1875 -0.34375 
Q 39.109375 -1.421875 33.890625 -1.421875 
Q 20.796875 -1.421875 13.15625 6.1875 
Q 5.515625 13.8125 5.515625 26.8125 
Q 5.515625 40.234375 12.765625 48.109375 
Q 20.015625 56 32.328125 56 
Q 43.359375 56 49.78125 48.890625 
Q 56.203125 41.796875 56.203125 29.59375 
z
M 47.21875 32.234375 
Q 47.125 39.59375 43.09375 43.984375 
Q 39.0625 48.390625 32.421875 48.390625 
Q 24.90625 48.390625 20.390625 44.140625 
Q 15.875 39.890625 15.1875 32.171875 
z
" id="DejaVuSans-101"/>
      <path d="M 41.109375 46.296875 
Q 39.59375 47.171875 37.8125 47.578125 
Q 36.03125 48 33.890625 48 
Q 26.265625 48 22.1875 43.046875 
Q 18.109375 38.09375 18.109375 28.8125 
L 18.109375 0 
L 9.078125 0 
L 9.078125 54.6875 
L 18.109375 54.6875 
L 18.109375 46.1875 
Q 20.953125 51.171875 25.484375 53.578125 
Q 30.03125 56 36.53125 56 
Q 37.453125 56 38.578125 55.875 
Q 39.703125 55.765625 41.0625 55.515625 
z
" id="DejaVuSans-114"/>
      <path d="M 34.28125 27.484375 
Q 23.390625 27.484375 19.1875 25 
Q 14.984375 22.515625 14.984375 16.5 
Q 14.984375 11.71875 18.140625 8.90625 
Q 21.296875 6.109375 26.703125 6.109375 
Q 34.1875 6.109375 38.703125 11.40625 
Q 43.21875 16.703125 43.21875 25.484375 
L 43.21875 27.484375 
z
M 52.203125 31.203125 
L 52.203125 0 
L 43.21875 0 
L 43.21875 8.296875 
Q 40.140625 3.328125 35.546875 0.953125 
Q 30.953125 -1.421875 24.3125 -1.421875 
Q 15.921875 -1.421875 10.953125 3.296875 
Q 6 8.015625 6 15.921875 
Q 6 25.140625 12.171875 29.828125 
Q 18.359375 34.515625 30.609375 34.515625 
L 43.21875 34.515625 
L 43.21875 35.40625 
Q 43.21875 41.609375 39.140625 45 
Q 35.0625 48.390625 27.6875 48.390625 
Q 23 48.390625 18.546875 47.265625 
Q 14.109375 46.140625 10.015625 43.890625 
L 10.015625 52.203125 
Q 14.9375 54.109375 19.578125 55.046875 
Q 24.21875 56 28.609375 56 
Q 40.484375 56 46.34375 49.84375 
Q 52.203125 43.703125 52.203125 31.203125 
z
" id="DejaVuSans-97"/>
      <path d="M 30.609375 48.390625 
Q 23.390625 48.390625 19.1875 42.75 
Q 14.984375 37.109375 14.984375 27.296875 
Q 14.984375 17.484375 19.15625 11.84375 
Q 23.34375 6.203125 30.609375 6.203125 
Q 37.796875 6.203125 41.984375 11.859375 
Q 46.1875 17.53125 46.1875 27.296875 
Q 46.1875 37.015625 41.984375 42.703125 
Q 37.796875 48.390625 30.609375 48.390625 
z
M 30.609375 56 
Q 42.328125 56 49.015625 48.375 
Q 55.71875 40.765625 55.71875 27.296875 
Q 55.71875 13.875 49.015625 6.21875 
Q 42.328125 -1.421875 30.609375 -1.421875 
Q 18.84375 -1.421875 12.171875 6.21875 
Q 5.515625 13.875 5.515625 27.296875 
Q 5.515625 40.765625 12.171875 48.375 
Q 18.84375 56 30.609375 56 
z
" id="DejaVuSans-111"/>
      <path d="M 54.890625 33.015625 
L 54.890625 0 
L 45.90625 0 
L 45.90625 32.71875 
Q 45.90625 40.484375 42.875 44.328125 
Q 39.84375 48.1875 33.796875 48.1875 
Q 26.515625 48.1875 22.3125 43.546875 
Q 18.109375 38.921875 18.109375 30.90625 
L 18.109375 0 
L 9.078125 0 
L 9.078125 54.6875 
L 18.109375 54.6875 
L 18.109375 46.1875 
Q 21.34375 51.125 25.703125 53.5625 
Q 30.078125 56 35.796875 56 
Q 45.21875 56 50.046875 50.171875 
Q 54.890625 44.34375 54.890625 33.015625 
z
" id="DejaVuSans-110"/>
      <path d="M 44.28125 53.078125 
L 44.28125 44.578125 
Q 40.484375 46.53125 36.375 47.5 
Q 32.28125 48.484375 27.875 48.484375 
Q 21.1875 48.484375 17.84375 46.4375 
Q 14.5 44.390625 14.5 40.28125 
Q 14.5 37.15625 16.890625 35.375 
Q 19.28125 33.59375 26.515625 31.984375 
L 29.59375 31.296875 
Q 39.15625 29.25 43.1875 25.515625 
Q 47.21875 21.78125 47.21875 15.09375 
Q 47.21875 7.46875 41.1875 3.015625 
Q 35.15625 -1.421875 24.609375 -1.421875 
Q 20.21875 -1.421875 15.453125 -0.5625 
Q 10.6875 0.296875 5.421875 2 
L 5.421875 11.28125 
Q 10.40625 8.6875 15.234375 7.390625 
Q 20.0625 6.109375 24.8125 6.109375 
Q 31.15625 6.109375 34.5625 8.28125 
Q 37.984375 10.453125 37.984375 14.40625 
Q 37.984375 18.0625 35.515625 20.015625 
Q 33.0625 21.96875 24.703125 23.78125 
L 21.578125 24.515625 
Q 13.234375 26.265625 9.515625 29.90625 
Q 5.8125 33.546875 5.8125 39.890625 
Q 5.8125 47.609375 11.28125 51.796875 
Q 16.75 56 26.8125 56 
Q 31.78125 56 36.171875 55.265625 
Q 40.578125 54.546875 44.28125 53.078125 
z
" id="DejaVuSans-115"/>
     </defs>
     <g transform="translate(221.107656 414.716563)scale(0.1 -0.1)">
      <use xlink:href="#DejaVuSans-105"/>
      <use x="27.783203" xlink:href="#DejaVuSans-116"/>
      <use x="66.992188" xlink:href="#DejaVuSans-101"/>
      <use x="128.515625" xlink:href="#DejaVuSans-114"/>
      <use x="169.628906" xlink:href="#DejaVuSans-97"/>
      <use x="230.908203" xlink:href="#DejaVuSans-116"/>
      <use x="270.117188" xlink:href="#DejaVuSans-105"/>
      <use x="297.900391" xlink:href="#DejaVuSans-111"/>
      <use x="359.082031" xlink:href="#DejaVuSans-110"/>
      <use x="422.460938" xlink:href="#DejaVuSans-115"/>
     </g>
    </g>
   </g>
   <g id="matplotlib.axis_2">
    <g id="ytick_1">
     <g id="line2d_35">
      <path clip-path="url(#pe1f4326c64)" d="M 32.47 366.761 
L 457.2 366.761 
" style="fill:none;stroke:#d3d3d3;stroke-linecap:square;stroke-opacity:0.75;stroke-width:0.8;"/>
     </g>
     <g id="line2d_36">
      <defs>
       <path d="M 0 0 
L -3.5 0 
" id="m8024668746" style="stroke:#000000;stroke-width:0.8;"/>
      </defs>
      <g>
       <use style="stroke:#000000;stroke-width:0.8;" x="32.47" xlink:href="#m8024668746" y="366.761"/>
      </g>
     </g>
     <g id="text_8">
      <!-- −4 -->
      <defs>
       <path d="M 10.59375 35.5 
L 73.1875 35.5 
L 73.1875 27.203125 
L 10.59375 27.203125 
z
" id="DejaVuSans-8722"/>
      </defs>
      <g transform="translate(10.727812 370.560219)scale(0.1 -0.1)">
       <use xlink:href="#DejaVuSans-8722"/>
       <use x="83.789062" xlink:href="#DejaVuSans-52"/>
      </g>
     </g>
    </g>
    <g id="ytick_2">
     <g id="line2d_37">
      <path clip-path="url(#pe1f4326c64)" d="M 32.47 307.040508 
L 457.2 307.040508 
" style="fill:none;stroke:#d3d3d3;stroke-linecap:square;stroke-opacity:0.75;stroke-width:0.8;"/>
     </g>
     <g id="line2d_38">
      <g>
       <use style="stroke:#000000;stroke-width:0.8;" x="32.47" xlink:href="#m8024668746" y="307.040508"/>
      </g>
     </g>
     <g id="text_9">
      <!-- −2 -->
      <g transform="translate(10.727812 310.839727)scale(0.1 -0.1)">
       <use xlink:href="#DejaVuSans-8722"/>
       <use x="83.789062" xlink:href="#DejaVuSans-50"/>
      </g>
     </g>
    </g>
    <g id="ytick_3">
     <g id="line2d_39">
      <path clip-path="url(#pe1f4326c64)" d="M 32.47 247.320017 
L 457.2 247.320017 
" style="fill:none;stroke:#d3d3d3;stroke-linecap:square;stroke-opacity:0.75;stroke-width:0.8;"/>
     </g>
     <g id="line2d_40">
      <g>
       <use style="stroke:#000000;stroke-width:0.8;" x="32.47" xlink:href="#m8024668746" y="247.320017"/>
      </g>
     </g>
     <g id="text_10">
      <!-- 0 -->
      <g transform="translate(19.1075 251.119236)scale(0.1 -0.1)">
       <use xlink:href="#DejaVuSans-48"/>
      </g>
     </g>
    </g>
    <g id="ytick_4">
     <g id="line2d_41">
      <path clip-path="url(#pe1f4326c64)" d="M 32.47 187.599526 
L 457.2 187.599526 
" style="fill:none;stroke:#d3d3d3;stroke-linecap:square;stroke-opacity:0.75;stroke-width:0.8;"/>
     </g>
     <g id="line2d_42">
      <g>
       <use style="stroke:#000000;stroke-width:0.8;" x="32.47" xlink:href="#m8024668746" y="187.599526"/>
      </g>
     </g>
     <g id="text_11">
      <!-- 2 -->
      <g transform="translate(19.1075 191.398744)scale(0.1 -0.1)">
       <use xlink:href="#DejaVuSans-50"/>
      </g>
     </g>
    </g>
    <g id="ytick_5">
     <g id="line2d_43">
      <path clip-path="url(#pe1f4326c64)" d="M 32.47 127.879034 
L 457.2 127.879034 
" style="fill:none;stroke:#d3d3d3;stroke-linecap:square;stroke-opacity:0.75;stroke-width:0.8;"/>
     </g>
     <g id="line2d_44">
      <g>
       <use style="stroke:#000000;stroke-width:0.8;" x="32.47" xlink:href="#m8024668746" y="127.879034"/>
      </g>
     </g>
     <g id="text_12">
      <!-- 4 -->
      <g transform="translate(19.1075 131.678253)scale(0.1 -0.1)">
       <use xlink:href="#DejaVuSans-52"/>
      </g>
     </g>
    </g>
    <g id="ytick_6">
     <g id="line2d_45">
      <path clip-path="url(#pe1f4326c64)" d="M 32.47 68.158543 
L 457.2 68.158543 
" style="fill:none;stroke:#d3d3d3;stroke-linecap:square;stroke-opacity:0.75;stroke-width:0.8;"/>
     </g>
     <g id="line2d_46">
      <g>
       <use style="stroke:#000000;stroke-width:0.8;" x="32.47" xlink:href="#m8024668746" y="68.158543"/>
      </g>
     </g>
     <g id="text_13">
      <!-- 6 -->
      <defs>
       <path d="M 33.015625 40.375 
Q 26.375 40.375 22.484375 35.828125 
Q 18.609375 31.296875 18.609375 23.390625 
Q 18.609375 15.53125 22.484375 10.953125 
Q 26.375 6.390625 33.015625 6.390625 
Q 39.65625 6.390625 43.53125 10.953125 
Q 47.40625 15.53125 47.40625 23.390625 
Q 47.40625 31.296875 43.53125 35.828125 
Q 39.65625 40.375 33.015625 40.375 
z
M 52.59375 71.296875 
L 52.59375 62.3125 
Q 48.875 64.0625 45.09375 64.984375 
Q 41.3125 65.921875 37.59375 65.921875 
Q 27.828125 65.921875 22.671875 59.328125 
Q 17.53125 52.734375 16.796875 39.40625 
Q 19.671875 43.65625 24.015625 45.921875 
Q 28.375 48.1875 33.59375 48.1875 
Q 44.578125 48.1875 50.953125 41.515625 
Q 57.328125 34.859375 57.328125 23.390625 
Q 57.328125 12.15625 50.6875 5.359375 
Q 44.046875 -1.421875 33.015625 -1.421875 
Q 20.359375 -1.421875 13.671875 8.265625 
Q 6.984375 17.96875 6.984375 36.375 
Q 6.984375 53.65625 15.1875 63.9375 
Q 23.390625 74.21875 37.203125 74.21875 
Q 40.921875 74.21875 44.703125 73.484375 
Q 48.484375 72.75 52.59375 71.296875 
z
" id="DejaVuSans-54"/>
      </defs>
      <g transform="translate(19.1075 71.957761)scale(0.1 -0.1)">
       <use xlink:href="#DejaVuSans-54"/>
      </g>
     </g>
    </g>
    <g id="ytick_7">
     <g id="line2d_47">
      <path clip-path="url(#pe1f4326c64)" d="M 32.47 381.691123 
L 457.2 381.691123 
" style="fill:none;stroke:#d3d3d3;stroke-dasharray:2.96,1.28;stroke-dashoffset:0;stroke-opacity:0.75;stroke-width:0.8;"/>
     </g>
     <g id="line2d_48">
      <defs>
       <path d="M 0 0 
L -2 0 
" id="m1ef54820b9" style="stroke:#000000;stroke-width:0.6;"/>
      </defs>
      <g>
       <use style="stroke:#000000;stroke-width:0.6;" x="32.47" xlink:href="#m1ef54820b9" y="381.691123"/>
      </g>
     </g>
    </g>
    <g id="ytick_8">
     <g id="line2d_49">
      <path clip-path="url(#pe1f4326c64)" d="M 32.47 351.830877 
L 457.2 351.830877 
" style="fill:none;stroke:#d3d3d3;stroke-dasharray:2.96,1.28;stroke-dashoffset:0;stroke-opacity:0.75;stroke-width:0.8;"/>
     </g>
     <g id="line2d_50">
      <g>
       <use style="stroke:#000000;stroke-width:0.6;" x="32.47" xlink:href="#m1ef54820b9" y="351.830877"/>
      </g>
     </g>
    </g>
    <g id="ytick_9">
     <g id="line2d_51">
      <path clip-path="url(#pe1f4326c64)" d="M 32.47 336.900754 
L 457.2 336.900754 
" style="fill:none;stroke:#d3d3d3;stroke-dasharray:2.96,1.28;stroke-dashoffset:0;stroke-opacity:0.75;stroke-width:0.8;"/>
     </g>
     <g id="line2d_52">
      <g>
       <use style="stroke:#000000;stroke-width:0.6;" x="32.47" xlink:href="#m1ef54820b9" y="336.900754"/>
      </g>
     </g>
    </g>
    <g id="ytick_10">
     <g id="line2d_53">
      <path clip-path="url(#pe1f4326c64)" d="M 32.47 321.970631 
L 457.2 321.970631 
" style="fill:none;stroke:#d3d3d3;stroke-dasharray:2.96,1.28;stroke-dashoffset:0;stroke-opacity:0.75;stroke-width:0.8;"/>
     </g>
     <g id="line2d_54">
      <g>
       <use style="stroke:#000000;stroke-width:0.6;" x="32.47" xlink:href="#m1ef54820b9" y="321.970631"/>
      </g>
     </g>
    </g>
    <g id="ytick_11">
     <g id="line2d_55">
      <path clip-path="url(#pe1f4326c64)" d="M 32.47 292.110386 
L 457.2 292.110386 
" style="fill:none;stroke:#d3d3d3;stroke-dasharray:2.96,1.28;stroke-dashoffset:0;stroke-opacity:0.75;stroke-width:0.8;"/>
     </g>
     <g id="line2d_56">
      <g>
       <use style="stroke:#000000;stroke-width:0.6;" x="32.47" xlink:href="#m1ef54820b9" y="292.110386"/>
      </g>
     </g>
    </g>
    <g id="ytick_12">
     <g id="line2d_57">
      <path clip-path="url(#pe1f4326c64)" d="M 32.47 277.180263 
L 457.2 277.180263 
" style="fill:none;stroke:#d3d3d3;stroke-dasharray:2.96,1.28;stroke-dashoffset:0;stroke-opacity:0.75;stroke-width:0.8;"/>
     </g>
     <g id="line2d_58">
      <g>
       <use style="stroke:#000000;stroke-width:0.6;" x="32.47" xlink:href="#m1ef54820b9" y="277.180263"/>
      </g>
     </g>
    </g>
    <g id="ytick_13">
     <g id="line2d_59">
      <path clip-path="url(#pe1f4326c64)" d="M 32.47 262.25014 
L 457.2 262.25014 
" style="fill:none;stroke:#d3d3d3;stroke-dasharray:2.96,1.28;stroke-dashoffset:0;stroke-opacity:0.75;stroke-width:0.8;"/>
     </g>
     <g id="line2d_60">
      <g>
       <use style="stroke:#000000;stroke-width:0.6;" x="32.47" xlink:href="#m1ef54820b9" y="262.25014"/>
      </g>
     </g>
    </g>
    <g id="ytick_14">
     <g id="line2d_61">
      <path clip-path="url(#pe1f4326c64)" d="M 32.47 232.389894 
L 457.2 232.389894 
" style="fill:none;stroke:#d3d3d3;stroke-dasharray:2.96,1.28;stroke-dashoffset:0;stroke-opacity:0.75;stroke-width:0.8;"/>
     </g>
     <g id="line2d_62">
      <g>
       <use style="stroke:#000000;stroke-width:0.6;" x="32.47" xlink:href="#m1ef54820b9" y="232.389894"/>
      </g>
     </g>
    </g>
    <g id="ytick_15">
     <g id="line2d_63">
      <path clip-path="url(#pe1f4326c64)" d="M 32.47 217.459771 
L 457.2 217.459771 
" style="fill:none;stroke:#d3d3d3;stroke-dasharray:2.96,1.28;stroke-dashoffset:0;stroke-opacity:0.75;stroke-width:0.8;"/>
     </g>
     <g id="line2d_64">
      <g>
       <use style="stroke:#000000;stroke-width:0.6;" x="32.47" xlink:href="#m1ef54820b9" y="217.459771"/>
      </g>
     </g>
    </g>
    <g id="ytick_16">
     <g id="line2d_65">
      <path clip-path="url(#pe1f4326c64)" d="M 32.47 202.529648 
L 457.2 202.529648 
" style="fill:none;stroke:#d3d3d3;stroke-dasharray:2.96,1.28;stroke-dashoffset:0;stroke-opacity:0.75;stroke-width:0.8;"/>
     </g>
     <g id="line2d_66">
      <g>
       <use style="stroke:#000000;stroke-width:0.6;" x="32.47" xlink:href="#m1ef54820b9" y="202.529648"/>
      </g>
     </g>
    </g>
    <g id="ytick_17">
     <g id="line2d_67">
      <path clip-path="url(#pe1f4326c64)" d="M 32.47 172.669403 
L 457.2 172.669403 
" style="fill:none;stroke:#d3d3d3;stroke-dasharray:2.96,1.28;stroke-dashoffset:0;stroke-opacity:0.75;stroke-width:0.8;"/>
     </g>
     <g id="line2d_68">
      <g>
       <use style="stroke:#000000;stroke-width:0.6;" x="32.47" xlink:href="#m1ef54820b9" y="172.669403"/>
      </g>
     </g>
    </g>
    <g id="ytick_18">
     <g id="line2d_69">
      <path clip-path="url(#pe1f4326c64)" d="M 32.47 157.73928 
L 457.2 157.73928 
" style="fill:none;stroke:#d3d3d3;stroke-dasharray:2.96,1.28;stroke-dashoffset:0;stroke-opacity:0.75;stroke-width:0.8;"/>
     </g>
     <g id="line2d_70">
      <g>
       <use style="stroke:#000000;stroke-width:0.6;" x="32.47" xlink:href="#m1ef54820b9" y="157.73928"/>
      </g>
     </g>
    </g>
    <g id="ytick_19">
     <g id="line2d_71">
      <path clip-path="url(#pe1f4326c64)" d="M 32.47 142.809157 
L 457.2 142.809157 
" style="fill:none;stroke:#d3d3d3;stroke-dasharray:2.96,1.28;stroke-dashoffset:0;stroke-opacity:0.75;stroke-width:0.8;"/>
     </g>
     <g id="line2d_72">
      <g>
       <use style="stroke:#000000;stroke-width:0.6;" x="32.47" xlink:href="#m1ef54820b9" y="142.809157"/>
      </g>
     </g>
    </g>
    <g id="ytick_20">
     <g id="line2d_73">
      <path clip-path="url(#pe1f4326c64)" d="M 32.47 112.948911 
L 457.2 112.948911 
" style="fill:none;stroke:#d3d3d3;stroke-dasharray:2.96,1.28;stroke-dashoffset:0;stroke-opacity:0.75;stroke-width:0.8;"/>
     </g>
     <g id="line2d_74">
      <g>
       <use style="stroke:#000000;stroke-width:0.6;" x="32.47" xlink:href="#m1ef54820b9" y="112.948911"/>
      </g>
     </g>
    </g>
    <g id="ytick_21">
     <g id="line2d_75">
      <path clip-path="url(#pe1f4326c64)" d="M 32.47 98.018788 
L 457.2 98.018788 
" style="fill:none;stroke:#d3d3d3;stroke-dasharray:2.96,1.28;stroke-dashoffset:0;stroke-opacity:0.75;stroke-width:0.8;"/>
     </g>
     <g id="line2d_76">
      <g>
       <use style="stroke:#000000;stroke-width:0.6;" x="32.47" xlink:href="#m1ef54820b9" y="98.018788"/>
      </g>
     </g>
    </g>
    <g id="ytick_22">
     <g id="line2d_77">
      <path clip-path="url(#pe1f4326c64)" d="M 32.47 83.088665 
L 457.2 83.088665 
" style="fill:none;stroke:#d3d3d3;stroke-dasharray:2.96,1.28;stroke-dashoffset:0;stroke-opacity:0.75;stroke-width:0.8;"/>
     </g>
     <g id="line2d_78">
      <g>
       <use style="stroke:#000000;stroke-width:0.6;" x="32.47" xlink:href="#m1ef54820b9" y="83.088665"/>
      </g>
     </g>
    </g>
    <g id="ytick_23">
     <g id="line2d_79">
      <path clip-path="url(#pe1f4326c64)" d="M 32.47 53.22842 
L 457.2 53.22842 
" style="fill:none;stroke:#d3d3d3;stroke-dasharray:2.96,1.28;stroke-dashoffset:0;stroke-opacity:0.75;stroke-width:0.8;"/>
     </g>
     <g id="line2d_80">
      <g>
       <use style="stroke:#000000;stroke-width:0.6;" x="32.47" xlink:href="#m1ef54820b9" y="53.22842"/>
      </g>
     </g>
    </g>
    <g id="ytick_24">
     <g id="line2d_81">
      <path clip-path="url(#pe1f4326c64)" d="M 32.47 38.298297 
L 457.2 38.298297 
" style="fill:none;stroke:#d3d3d3;stroke-dasharray:2.96,1.28;stroke-dashoffset:0;stroke-opacity:0.75;stroke-width:0.8;"/>
     </g>
     <g id="line2d_82">
      <g>
       <use style="stroke:#000000;stroke-width:0.6;" x="32.47" xlink:href="#m1ef54820b9" y="38.298297"/>
      </g>
     </g>
    </g>
   </g>
   <g id="line2d_83">
    <path clip-path="url(#pe1f4326c64)" d="M 51.775909 320.784891 
L 90.387727 94.136441 
L 128.999545 78.952342 
L 167.611364 78.39073 
L 206.223182 80.110046 
L 244.835 84.072636 
L 283.446818 83.962143 
L 322.058636 84.821851 
L 360.670455 83.995191 
L 399.282273 83.674888 
L 437.894091 85.012375 
" style="fill:none;stroke:#2ca02c;stroke-linecap:square;stroke-width:1.5;"/>
    <defs>
     <path d="M 0 2.5 
C 0.663008 2.5 1.29895 2.236584 1.767767 1.767767 
C 2.236584 1.29895 2.5 0.663008 2.5 0 
C 2.5 -0.663008 2.236584 -1.29895 1.767767 -1.767767 
C 1.29895 -2.236584 0.663008 -2.5 0 -2.5 
C -0.663008 -2.5 -1.29895 -2.236584 -1.767767 -1.767767 
C -2.236584 -1.29895 -2.5 -0.663008 -2.5 0 
C -2.5 0.663008 -2.236584 1.29895 -1.767767 1.767767 
C -1.29895 2.236584 -0.663008 2.5 0 2.5 
z
" id="m632c292ae9" style="stroke:#2ca02c;"/>
    </defs>
    <g clip-path="url(#pe1f4326c64)">
     <use style="fill-opacity:0;stroke:#2ca02c;" x="51.775909" xlink:href="#m632c292ae9" y="320.784891"/>
     <use style="fill-opacity:0;stroke:#2ca02c;" x="90.387727" xlink:href="#m632c292ae9" y="94.136441"/>
     <use style="fill-opacity:0;stroke:#2ca02c;" x="128.999545" xlink:href="#m632c292ae9" y="78.952342"/>
     <use style="fill-opacity:0;stroke:#2ca02c;" x="167.611364" xlink:href="#m632c292ae9" y="78.39073"/>
     <use style="fill-opacity:0;stroke:#2ca02c;" x="206.223182" xlink:href="#m632c292ae9" y="80.110046"/>
     <use style="fill-opacity:0;stroke:#2ca02c;" x="244.835" xlink:href="#m632c292ae9" y="84.072636"/>
     <use style="fill-opacity:0;stroke:#2ca02c;" x="283.446818" xlink:href="#m632c292ae9" y="83.962143"/>
     <use style="fill-opacity:0;stroke:#2ca02c;" x="322.058636" xlink:href="#m632c292ae9" y="84.821851"/>
     <use style="fill-opacity:0;stroke:#2ca02c;" x="360.670455" xlink:href="#m632c292ae9" y="83.995191"/>
     <use style="fill-opacity:0;stroke:#2ca02c;" x="399.282273" xlink:href="#m632c292ae9" y="83.674888"/>
     <use style="fill-opacity:0;stroke:#2ca02c;" x="437.894091" xlink:href="#m632c292ae9" y="85.012375"/>
    </g>
   </g>
   <g id="line2d_84">
    <path clip-path="url(#pe1f4326c64)" d="M 51.775909 310.351628 
L 90.387727 124.56284 
L 128.999545 114.543377 
L 167.611364 111.597981 
L 206.223182 112.348312 
L 244.835 109.73435 
L 283.446818 110.590402 
L 322.058636 112.003161 
L 360.670455 113.204567 
L 399.282273 112.266718 
L 437.894091 113.912831 
" style="fill:none;stroke:#1f77b4;stroke-dasharray:5.55,2.4;stroke-dashoffset:0;stroke-width:1.5;"/>
    <defs>
     <path d="M 0 2.5 
C 0.663008 2.5 1.29895 2.236584 1.767767 1.767767 
C 2.236584 1.29895 2.5 0.663008 2.5 0 
C 2.5 -0.663008 2.236584 -1.29895 1.767767 -1.767767 
C 1.29895 -2.236584 0.663008 -2.5 0 -2.5 
C -0.663008 -2.5 -1.29895 -2.236584 -1.767767 -1.767767 
C -2.236584 -1.29895 -2.5 -0.663008 -2.5 0 
C -2.5 0.663008 -2.236584 1.29895 -1.767767 1.767767 
C -1.29895 2.236584 -0.663008 2.5 0 2.5 
z
" id="m77d5fea0dd" style="stroke:#1f77b4;"/>
    </defs>
    <g clip-path="url(#pe1f4326c64)">
     <use style="fill-opacity:0;stroke:#1f77b4;" x="51.775909" xlink:href="#m77d5fea0dd" y="310.351628"/>
     <use style="fill-opacity:0;stroke:#1f77b4;" x="90.387727" xlink:href="#m77d5fea0dd" y="124.56284"/>
     <use style="fill-opacity:0;stroke:#1f77b4;" x="128.999545" xlink:href="#m77d5fea0dd" y="114.543377"/>
     <use style="fill-opacity:0;stroke:#1f77b4;" x="167.611364" xlink:href="#m77d5fea0dd" y="111.597981"/>
     <use style="fill-opacity:0;stroke:#1f77b4;" x="206.223182" xlink:href="#m77d5fea0dd" y="112.348312"/>
     <use style="fill-opacity:0;stroke:#1f77b4;" x="244.835" xlink:href="#m77d5fea0dd" y="109.73435"/>
     <use style="fill-opacity:0;stroke:#1f77b4;" x="283.446818" xlink:href="#m77d5fea0dd" y="110.590402"/>
     <use style="fill-opacity:0;stroke:#1f77b4;" x="322.058636" xlink:href="#m77d5fea0dd" y="112.003161"/>
     <use style="fill-opacity:0;stroke:#1f77b4;" x="360.670455" xlink:href="#m77d5fea0dd" y="113.204567"/>
     <use style="fill-opacity:0;stroke:#1f77b4;" x="399.282273" xlink:href="#m77d5fea0dd" y="112.266718"/>
     <use style="fill-opacity:0;stroke:#1f77b4;" x="437.894091" xlink:href="#m77d5fea0dd" y="113.912831"/>
    </g>
   </g>
   <g id="line2d_85">
    <path clip-path="url(#pe1f4326c64)" d="M 51.775909 325.325178 
L 90.387727 181.867271 
L 128.999545 124.200063 
L 167.611364 101.288233 
L 206.223182 91.117334 
L 244.835 84.412483 
L 283.446818 78.989572 
L 322.058636 75.729453 
L 360.670455 76.138794 
L 399.282273 74.759857 
L 437.894091 74.131877 
" style="fill:none;stroke:#1f77b4;stroke-dasharray:5.55,2.4;stroke-dashoffset:0;stroke-width:1.5;"/>
    <defs>
     <path d="M -2.5 2.5 
L 2.5 2.5 
L 2.5 -2.5 
L -2.5 -2.5 
z
" id="m3fa7883c23" style="stroke:#1f77b4;stroke-linejoin:miter;"/>
    </defs>
    <g clip-path="url(#pe1f4326c64)">
     <use style="fill-opacity:0;stroke:#1f77b4;stroke-linejoin:miter;" x="51.775909" xlink:href="#m3fa7883c23" y="325.325178"/>
     <use style="fill-opacity:0;stroke:#1f77b4;stroke-linejoin:miter;" x="90.387727" xlink:href="#m3fa7883c23" y="181.867271"/>
     <use style="fill-opacity:0;stroke:#1f77b4;stroke-linejoin:miter;" x="128.999545" xlink:href="#m3fa7883c23" y="124.200063"/>
     <use style="fill-opacity:0;stroke:#1f77b4;stroke-linejoin:miter;" x="167.611364" xlink:href="#m3fa7883c23" y="101.288233"/>
     <use style="fill-opacity:0;stroke:#1f77b4;stroke-linejoin:miter;" x="206.223182" xlink:href="#m3fa7883c23" y="91.117334"/>
     <use style="fill-opacity:0;stroke:#1f77b4;stroke-linejoin:miter;" x="244.835" xlink:href="#m3fa7883c23" y="84.412483"/>
     <use style="fill-opacity:0;stroke:#1f77b4;stroke-linejoin:miter;" x="283.446818" xlink:href="#m3fa7883c23" y="78.989572"/>
     <use style="fill-opacity:0;stroke:#1f77b4;stroke-linejoin:miter;" x="322.058636" xlink:href="#m3fa7883c23" y="75.729453"/>
     <use style="fill-opacity:0;stroke:#1f77b4;stroke-linejoin:miter;" x="360.670455" xlink:href="#m3fa7883c23" y="76.138794"/>
     <use style="fill-opacity:0;stroke:#1f77b4;stroke-linejoin:miter;" x="399.282273" xlink:href="#m3fa7883c23" y="74.759857"/>
     <use style="fill-opacity:0;stroke:#1f77b4;stroke-linejoin:miter;" x="437.894091" xlink:href="#m3fa7883c23" y="74.131877"/>
    </g>
   </g>
   <g id="line2d_86">
    <path clip-path="url(#pe1f4326c64)" d="M 51.775909 323.419814 
L 90.387727 188.960698 
L 128.999545 144.544977 
L 167.611364 121.713234 
L 206.223182 107.186304 
L 244.835 97.905846 
L 283.446818 90.720128 
L 322.058636 88.145894 
L 360.670455 87.411646 
L 399.282273 84.119657 
L 437.894091 81.478759 
" style="fill:none;stroke:#1f77b4;stroke-dasharray:5.55,2.4;stroke-dashoffset:0;stroke-width:1.5;"/>
    <defs>
     <path d="M -0 3.535534 
L 2.12132 0 
L -0 -3.535534 
L -2.12132 -0 
z
" id="m4e35fde979" style="stroke:#1f77b4;stroke-linejoin:miter;"/>
    </defs>
    <g clip-path="url(#pe1f4326c64)">
     <use style="fill-opacity:0;stroke:#1f77b4;stroke-linejoin:miter;" x="51.775909" xlink:href="#m4e35fde979" y="323.419814"/>
     <use style="fill-opacity:0;stroke:#1f77b4;stroke-linejoin:miter;" x="90.387727" xlink:href="#m4e35fde979" y="188.960698"/>
     <use style="fill-opacity:0;stroke:#1f77b4;stroke-linejoin:miter;" x="128.999545" xlink:href="#m4e35fde979" y="144.544977"/>
     <use style="fill-opacity:0;stroke:#1f77b4;stroke-linejoin:miter;" x="167.611364" xlink:href="#m4e35fde979" y="121.713234"/>
     <use style="fill-opacity:0;stroke:#1f77b4;stroke-linejoin:miter;" x="206.223182" xlink:href="#m4e35fde979" y="107.186304"/>
     <use style="fill-opacity:0;stroke:#1f77b4;stroke-linejoin:miter;" x="244.835" xlink:href="#m4e35fde979" y="97.905846"/>
     <use style="fill-opacity:0;stroke:#1f77b4;stroke-linejoin:miter;" x="283.446818" xlink:href="#m4e35fde979" y="90.720128"/>
     <use style="fill-opacity:0;stroke:#1f77b4;stroke-linejoin:miter;" x="322.058636" xlink:href="#m4e35fde979" y="88.145894"/>
     <use style="fill-opacity:0;stroke:#1f77b4;stroke-linejoin:miter;" x="360.670455" xlink:href="#m4e35fde979" y="87.411646"/>
     <use style="fill-opacity:0;stroke:#1f77b4;stroke-linejoin:miter;" x="399.282273" xlink:href="#m4e35fde979" y="84.119657"/>
     <use style="fill-opacity:0;stroke:#1f77b4;stroke-linejoin:miter;" x="437.894091" xlink:href="#m4e35fde979" y="81.478759"/>
    </g>
   </g>
   <g id="line2d_87">
    <path clip-path="url(#pe1f4326c64)" d="M 51.775909 332.445375 
L 90.387727 92.461344 
L 128.999545 87.716801 
L 167.611364 93.220473 
L 206.223182 98.251509 
L 244.835 103.09096 
L 283.446818 110.164937 
L 322.058636 111.808517 
L 360.670455 112.632477 
L 399.282273 115.234322 
L 437.894091 114.479335 
" style="fill:none;stroke:#ff7f0e;stroke-dasharray:1.5,2.475;stroke-dashoffset:0;stroke-width:1.5;"/>
    <defs>
     <path d="M 0 2.5 
C 0.663008 2.5 1.29895 2.236584 1.767767 1.767767 
C 2.236584 1.29895 2.5 0.663008 2.5 0 
C 2.5 -0.663008 2.236584 -1.29895 1.767767 -1.767767 
C 1.29895 -2.236584 0.663008 -2.5 0 -2.5 
C -0.663008 -2.5 -1.29895 -2.236584 -1.767767 -1.767767 
C -2.236584 -1.29895 -2.5 -0.663008 -2.5 0 
C -2.5 0.663008 -2.236584 1.29895 -1.767767 1.767767 
C -1.29895 2.236584 -0.663008 2.5 0 2.5 
z
" id="m00d6c691d8" style="stroke:#ff7f0e;"/>
    </defs>
    <g clip-path="url(#pe1f4326c64)">
     <use style="fill-opacity:0;stroke:#ff7f0e;" x="51.775909" xlink:href="#m00d6c691d8" y="332.445375"/>
     <use style="fill-opacity:0;stroke:#ff7f0e;" x="90.387727" xlink:href="#m00d6c691d8" y="92.461344"/>
     <use style="fill-opacity:0;stroke:#ff7f0e;" x="128.999545" xlink:href="#m00d6c691d8" y="87.716801"/>
     <use style="fill-opacity:0;stroke:#ff7f0e;" x="167.611364" xlink:href="#m00d6c691d8" y="93.220473"/>
     <use style="fill-opacity:0;stroke:#ff7f0e;" x="206.223182" xlink:href="#m00d6c691d8" y="98.251509"/>
     <use style="fill-opacity:0;stroke:#ff7f0e;" x="244.835" xlink:href="#m00d6c691d8" y="103.09096"/>
     <use style="fill-opacity:0;stroke:#ff7f0e;" x="283.446818" xlink:href="#m00d6c691d8" y="110.164937"/>
     <use style="fill-opacity:0;stroke:#ff7f0e;" x="322.058636" xlink:href="#m00d6c691d8" y="111.808517"/>
     <use style="fill-opacity:0;stroke:#ff7f0e;" x="360.670455" xlink:href="#m00d6c691d8" y="112.632477"/>
     <use style="fill-opacity:0;stroke:#ff7f0e;" x="399.282273" xlink:href="#m00d6c691d8" y="115.234322"/>
     <use style="fill-opacity:0;stroke:#ff7f0e;" x="437.894091" xlink:href="#m00d6c691d8" y="114.479335"/>
    </g>
   </g>
   <g id="line2d_88">
    <path clip-path="url(#pe1f4326c64)" d="M 51.775909 370.030909 
L 90.387727 108.627639 
L 128.999545 66.303756 
L 167.611364 55.354471 
L 206.223182 51.958572 
L 244.835 50.509077 
L 283.446818 48.688693 
L 322.058636 46.613853 
L 360.670455 44.570791 
L 399.282273 45.350761 
L 437.894091 44.679289 
" style="fill:none;stroke:#ff7f0e;stroke-dasharray:1.5,2.475;stroke-dashoffset:0;stroke-width:1.5;"/>
    <defs>
     <path d="M -2.5 2.5 
L 2.5 2.5 
L 2.5 -2.5 
L -2.5 -2.5 
z
" id="m9581133c57" style="stroke:#ff7f0e;stroke-linejoin:miter;"/>
    </defs>
    <g clip-path="url(#pe1f4326c64)">
     <use style="fill-opacity:0;stroke:#ff7f0e;stroke-linejoin:miter;" x="51.775909" xlink:href="#m9581133c57" y="370.030909"/>
     <use style="fill-opacity:0;stroke:#ff7f0e;stroke-linejoin:miter;" x="90.387727" xlink:href="#m9581133c57" y="108.627639"/>
     <use style="fill-opacity:0;stroke:#ff7f0e;stroke-linejoin:miter;" x="128.999545" xlink:href="#m9581133c57" y="66.303756"/>
     <use style="fill-opacity:0;stroke:#ff7f0e;stroke-linejoin:miter;" x="167.611364" xlink:href="#m9581133c57" y="55.354471"/>
     <use style="fill-opacity:0;stroke:#ff7f0e;stroke-linejoin:miter;" x="206.223182" xlink:href="#m9581133c57" y="51.958572"/>
     <use style="fill-opacity:0;stroke:#ff7f0e;stroke-linejoin:miter;" x="244.835" xlink:href="#m9581133c57" y="50.509077"/>
     <use style="fill-opacity:0;stroke:#ff7f0e;stroke-linejoin:miter;" x="283.446818" xlink:href="#m9581133c57" y="48.688693"/>
     <use style="fill-opacity:0;stroke:#ff7f0e;stroke-linejoin:miter;" x="322.058636" xlink:href="#m9581133c57" y="46.613853"/>
     <use style="fill-opacity:0;stroke:#ff7f0e;stroke-linejoin:miter;" x="360.670455" xlink:href="#m9581133c57" y="44.570791"/>
     <use style="fill-opacity:0;stroke:#ff7f0e;stroke-linejoin:miter;" x="399.282273" xlink:href="#m9581133c57" y="45.350761"/>
     <use style="fill-opacity:0;stroke:#ff7f0e;stroke-linejoin:miter;" x="437.894091" xlink:href="#m9581133c57" y="44.679289"/>
    </g>
   </g>
   <g id="line2d_89">
    <path clip-path="url(#pe1f4326c64)" d="M 51.775909 349.206972 
L 90.387727 132.117342 
L 128.999545 73.707909 
L 167.611364 55.976522 
L 206.223182 52.238225 
L 244.835 48.939095 
L 283.446818 49.23576 
L 322.058636 48.613833 
L 360.670455 44.918223 
L 399.282273 41.849091 
L 437.894091 42.013185 
" style="fill:none;stroke:#ff7f0e;stroke-dasharray:1.5,2.475;stroke-dashoffset:0;stroke-width:1.5;"/>
    <defs>
     <path d="M -0 3.535534 
L 2.12132 0 
L -0 -3.535534 
L -2.12132 -0 
z
" id="m6581011069" style="stroke:#ff7f0e;stroke-linejoin:miter;"/>
    </defs>
    <g clip-path="url(#pe1f4326c64)">
     <use style="fill-opacity:0;stroke:#ff7f0e;stroke-linejoin:miter;" x="51.775909" xlink:href="#m6581011069" y="349.206972"/>
     <use style="fill-opacity:0;stroke:#ff7f0e;stroke-linejoin:miter;" x="90.387727" xlink:href="#m6581011069" y="132.117342"/>
     <use style="fill-opacity:0;stroke:#ff7f0e;stroke-linejoin:miter;" x="128.999545" xlink:href="#m6581011069" y="73.707909"/>
     <use style="fill-opacity:0;stroke:#ff7f0e;stroke-linejoin:miter;" x="167.611364" xlink:href="#m6581011069" y="55.976522"/>
     <use style="fill-opacity:0;stroke:#ff7f0e;stroke-linejoin:miter;" x="206.223182" xlink:href="#m6581011069" y="52.238225"/>
     <use style="fill-opacity:0;stroke:#ff7f0e;stroke-linejoin:miter;" x="244.835" xlink:href="#m6581011069" y="48.939095"/>
     <use style="fill-opacity:0;stroke:#ff7f0e;stroke-linejoin:miter;" x="283.446818" xlink:href="#m6581011069" y="49.23576"/>
     <use style="fill-opacity:0;stroke:#ff7f0e;stroke-linejoin:miter;" x="322.058636" xlink:href="#m6581011069" y="48.613833"/>
     <use style="fill-opacity:0;stroke:#ff7f0e;stroke-linejoin:miter;" x="360.670455" xlink:href="#m6581011069" y="44.918223"/>
     <use style="fill-opacity:0;stroke:#ff7f0e;stroke-linejoin:miter;" x="399.282273" xlink:href="#m6581011069" y="41.849091"/>
     <use style="fill-opacity:0;stroke:#ff7f0e;stroke-linejoin:miter;" x="437.894091" xlink:href="#m6581011069" y="42.013185"/>
    </g>
   </g>
   <g id="line2d_90">
    <path clip-path="url(#pe1f4326c64)" d="M 51.775909 324.074368 
L 90.387727 324.074368 
L 128.999545 324.074368 
L 167.611364 324.074368 
L 206.223182 324.074368 
L 244.835 324.074368 
L 283.446818 324.074368 
L 322.058636 324.074368 
L 360.670455 324.074368 
L 399.282273 324.074368 
L 437.894091 324.074368 
" style="fill:none;stroke:#000000;stroke-linecap:square;stroke-width:1.5;"/>
   </g>
   <g id="patch_3">
    <path d="M 32.47 386.44 
L 32.47 25.44 
" style="fill:none;stroke:#000000;stroke-linecap:square;stroke-linejoin:miter;stroke-width:0.8;"/>
   </g>
   <g id="patch_4">
    <path d="M 457.2 386.44 
L 457.2 25.44 
" style="fill:none;stroke:#000000;stroke-linecap:square;stroke-linejoin:miter;stroke-width:0.8;"/>
   </g>
   <g id="patch_5">
    <path d="M 32.47 386.44 
L 457.2 386.44 
" style="fill:none;stroke:#000000;stroke-linecap:square;stroke-linejoin:miter;stroke-width:0.8;"/>
   </g>
   <g id="patch_6">
    <path d="M 32.47 25.44 
L 457.2 25.44 
" style="fill:none;stroke:#000000;stroke-linecap:square;stroke-linejoin:miter;stroke-width:0.8;"/>
   </g>
   <g id="text_14">
    <!-- SI-SDR in dB -->
    <defs>
     <path d="M 53.515625 70.515625 
L 53.515625 60.890625 
Q 47.90625 63.578125 42.921875 64.890625 
Q 37.9375 66.21875 33.296875 66.21875 
Q 25.25 66.21875 20.875 63.09375 
Q 16.5 59.96875 16.5 54.203125 
Q 16.5 49.359375 19.40625 46.890625 
Q 22.3125 44.4375 30.421875 42.921875 
L 36.375 41.703125 
Q 47.40625 39.59375 52.65625 34.296875 
Q 57.90625 29 57.90625 20.125 
Q 57.90625 9.515625 50.796875 4.046875 
Q 43.703125 -1.421875 29.984375 -1.421875 
Q 24.8125 -1.421875 18.96875 -0.25 
Q 13.140625 0.921875 6.890625 3.21875 
L 6.890625 13.375 
Q 12.890625 10.015625 18.65625 8.296875 
Q 24.421875 6.59375 29.984375 6.59375 
Q 38.421875 6.59375 43.015625 9.90625 
Q 47.609375 13.234375 47.609375 19.390625 
Q 47.609375 24.75 44.3125 27.78125 
Q 41.015625 30.8125 33.5 32.328125 
L 27.484375 33.5 
Q 16.453125 35.6875 11.515625 40.375 
Q 6.59375 45.0625 6.59375 53.421875 
Q 6.59375 63.09375 13.40625 68.65625 
Q 20.21875 74.21875 32.171875 74.21875 
Q 37.3125 74.21875 42.625 73.28125 
Q 47.953125 72.359375 53.515625 70.515625 
z
" id="DejaVuSans-83"/>
     <path d="M 9.8125 72.90625 
L 19.671875 72.90625 
L 19.671875 0 
L 9.8125 0 
z
" id="DejaVuSans-73"/>
     <path d="M 4.890625 31.390625 
L 31.203125 31.390625 
L 31.203125 23.390625 
L 4.890625 23.390625 
z
" id="DejaVuSans-45"/>
     <path d="M 19.671875 64.796875 
L 19.671875 8.109375 
L 31.59375 8.109375 
Q 46.6875 8.109375 53.6875 14.9375 
Q 60.6875 21.78125 60.6875 36.53125 
Q 60.6875 51.171875 53.6875 57.984375 
Q 46.6875 64.796875 31.59375 64.796875 
z
M 9.8125 72.90625 
L 30.078125 72.90625 
Q 51.265625 72.90625 61.171875 64.09375 
Q 71.09375 55.28125 71.09375 36.53125 
Q 71.09375 17.671875 61.125 8.828125 
Q 51.171875 0 30.078125 0 
L 9.8125 0 
z
" id="DejaVuSans-68"/>
     <path d="M 44.390625 34.1875 
Q 47.5625 33.109375 50.5625 29.59375 
Q 53.5625 26.078125 56.59375 19.921875 
L 66.609375 0 
L 56 0 
L 46.6875 18.703125 
Q 43.0625 26.03125 39.671875 28.421875 
Q 36.28125 30.8125 30.421875 30.8125 
L 19.671875 30.8125 
L 19.671875 0 
L 9.8125 0 
L 9.8125 72.90625 
L 32.078125 72.90625 
Q 44.578125 72.90625 50.734375 67.671875 
Q 56.890625 62.453125 56.890625 51.90625 
Q 56.890625 45.015625 53.6875 40.46875 
Q 50.484375 35.9375 44.390625 34.1875 
z
M 19.671875 64.796875 
L 19.671875 38.921875 
L 32.078125 38.921875 
Q 39.203125 38.921875 42.84375 42.21875 
Q 46.484375 45.515625 46.484375 51.90625 
Q 46.484375 58.296875 42.84375 61.546875 
Q 39.203125 64.796875 32.078125 64.796875 
z
" id="DejaVuSans-82"/>
     <path id="DejaVuSans-32"/>
     <path d="M 45.40625 46.390625 
L 45.40625 75.984375 
L 54.390625 75.984375 
L 54.390625 0 
L 45.40625 0 
L 45.40625 8.203125 
Q 42.578125 3.328125 38.25 0.953125 
Q 33.9375 -1.421875 27.875 -1.421875 
Q 17.96875 -1.421875 11.734375 6.484375 
Q 5.515625 14.40625 5.515625 27.296875 
Q 5.515625 40.1875 11.734375 48.09375 
Q 17.96875 56 27.875 56 
Q 33.9375 56 38.25 53.625 
Q 42.578125 51.265625 45.40625 46.390625 
z
M 14.796875 27.296875 
Q 14.796875 17.390625 18.875 11.75 
Q 22.953125 6.109375 30.078125 6.109375 
Q 37.203125 6.109375 41.296875 11.75 
Q 45.40625 17.390625 45.40625 27.296875 
Q 45.40625 37.203125 41.296875 42.84375 
Q 37.203125 48.484375 30.078125 48.484375 
Q 22.953125 48.484375 18.875 42.84375 
Q 14.796875 37.203125 14.796875 27.296875 
z
" id="DejaVuSans-100"/>
     <path d="M 19.671875 34.8125 
L 19.671875 8.109375 
L 35.5 8.109375 
Q 43.453125 8.109375 47.28125 11.40625 
Q 51.125 14.703125 51.125 21.484375 
Q 51.125 28.328125 47.28125 31.5625 
Q 43.453125 34.8125 35.5 34.8125 
z
M 19.671875 64.796875 
L 19.671875 42.828125 
L 34.28125 42.828125 
Q 41.5 42.828125 45.03125 45.53125 
Q 48.578125 48.25 48.578125 53.8125 
Q 48.578125 59.328125 45.03125 62.0625 
Q 41.5 64.796875 34.28125 64.796875 
z
M 9.8125 72.90625 
L 35.015625 72.90625 
Q 46.296875 72.90625 52.390625 68.21875 
Q 58.5 63.53125 58.5 54.890625 
Q 58.5 48.1875 55.375 44.234375 
Q 52.25 40.28125 46.1875 39.3125 
Q 53.46875 37.75 57.5 32.78125 
Q 61.53125 27.828125 61.53125 20.40625 
Q 61.53125 10.640625 54.890625 5.3125 
Q 48.25 0 35.984375 0 
L 9.8125 0 
z
" id="DejaVuSans-66"/>
    </defs>
    <g transform="translate(207.284375 19.44)scale(0.12 -0.12)">
     <use xlink:href="#DejaVuSans-83"/>
     <use x="63.476562" xlink:href="#DejaVuSans-73"/>
     <use x="92.96875" xlink:href="#DejaVuSans-45"/>
     <use x="129.052734" xlink:href="#DejaVuSans-83"/>
     <use x="192.529297" xlink:href="#DejaVuSans-68"/>
     <use x="269.53125" xlink:href="#DejaVuSans-82"/>
     <use x="339.013672" xlink:href="#DejaVuSans-32"/>
     <use x="370.800781" xlink:href="#DejaVuSans-105"/>
     <use x="398.583984" xlink:href="#DejaVuSans-110"/>
     <use x="461.962891" xlink:href="#DejaVuSans-32"/>
     <use x="493.75" xlink:href="#DejaVuSans-100"/>
     <use x="557.226562" xlink:href="#DejaVuSans-66"/>
    </g>
   </g>
   <g id="legend_1">
    <g id="patch_7">
     <path d="M 318.064062 381.44 
L 450.2 381.44 
Q 452.2 381.44 452.2 379.44 
L 452.2 263.015 
Q 452.2 261.015 450.2 261.015 
L 318.064062 261.015 
Q 316.064062 261.015 316.064062 263.015 
L 316.064062 379.44 
Q 316.064062 381.44 318.064062 381.44 
z
" style="fill:#ffffff;opacity:0.8;stroke:#cccccc;stroke-linejoin:miter;"/>
    </g>
    <g id="line2d_91">
     <path d="M 320.064062 269.113438 
L 340.064062 269.113438 
" style="fill:none;stroke:#2ca02c;stroke-linecap:square;stroke-width:1.5;"/>
    </g>
    <g id="line2d_92">
     <g>
      <use style="fill-opacity:0;stroke:#2ca02c;" x="330.064062" xlink:href="#m632c292ae9" y="269.113438"/>
     </g>
    </g>
    <g id="text_15">
     <!-- VAE MCMC -->
     <defs>
      <path d="M 28.609375 0 
L 0.78125 72.90625 
L 11.078125 72.90625 
L 34.1875 11.53125 
L 57.328125 72.90625 
L 67.578125 72.90625 
L 39.796875 0 
z
" id="DejaVuSans-86"/>
      <path d="M 34.1875 63.1875 
L 20.796875 26.90625 
L 47.609375 26.90625 
z
M 28.609375 72.90625 
L 39.796875 72.90625 
L 67.578125 0 
L 57.328125 0 
L 50.6875 18.703125 
L 17.828125 18.703125 
L 11.1875 0 
L 0.78125 0 
z
" id="DejaVuSans-65"/>
      <path d="M 9.8125 72.90625 
L 55.90625 72.90625 
L 55.90625 64.59375 
L 19.671875 64.59375 
L 19.671875 43.015625 
L 54.390625 43.015625 
L 54.390625 34.71875 
L 19.671875 34.71875 
L 19.671875 8.296875 
L 56.78125 8.296875 
L 56.78125 0 
L 9.8125 0 
z
" id="DejaVuSans-69"/>
      <path d="M 9.8125 72.90625 
L 24.515625 72.90625 
L 43.109375 23.296875 
L 61.8125 72.90625 
L 76.515625 72.90625 
L 76.515625 0 
L 66.890625 0 
L 66.890625 64.015625 
L 48.09375 14.015625 
L 38.1875 14.015625 
L 19.390625 64.015625 
L 19.390625 0 
L 9.8125 0 
z
" id="DejaVuSans-77"/>
      <path d="M 64.40625 67.28125 
L 64.40625 56.890625 
Q 59.421875 61.53125 53.78125 63.8125 
Q 48.140625 66.109375 41.796875 66.109375 
Q 29.296875 66.109375 22.65625 58.46875 
Q 16.015625 50.828125 16.015625 36.375 
Q 16.015625 21.96875 22.65625 14.328125 
Q 29.296875 6.6875 41.796875 6.6875 
Q 48.140625 6.6875 53.78125 8.984375 
Q 59.421875 11.28125 64.40625 15.921875 
L 64.40625 5.609375 
Q 59.234375 2.09375 53.4375 0.328125 
Q 47.65625 -1.421875 41.21875 -1.421875 
Q 24.65625 -1.421875 15.125 8.703125 
Q 5.609375 18.84375 5.609375 36.375 
Q 5.609375 53.953125 15.125 64.078125 
Q 24.65625 74.21875 41.21875 74.21875 
Q 47.75 74.21875 53.53125 72.484375 
Q 59.328125 70.75 64.40625 67.28125 
z
" id="DejaVuSans-67"/>
     </defs>
     <g transform="translate(348.064062 272.613438)scale(0.1 -0.1)">
      <use xlink:href="#DejaVuSans-86"/>
      <use x="62.033203" xlink:href="#DejaVuSans-65"/>
      <use x="130.441406" xlink:href="#DejaVuSans-69"/>
      <use x="193.625" xlink:href="#DejaVuSans-32"/>
      <use x="225.412109" xlink:href="#DejaVuSans-77"/>
      <use x="311.691406" xlink:href="#DejaVuSans-67"/>
      <use x="381.515625" xlink:href="#DejaVuSans-77"/>
      <use x="467.794922" xlink:href="#DejaVuSans-67"/>
     </g>
    </g>
    <g id="line2d_93">
     <path d="M 320.064062 283.791563 
L 340.064062 283.791563 
" style="fill:none;stroke:#1f77b4;stroke-dasharray:5.55,2.4;stroke-dashoffset:0;stroke-width:1.5;"/>
    </g>
    <g id="line2d_94">
     <g>
      <use style="fill-opacity:0;stroke:#1f77b4;" x="330.064062" xlink:href="#m77d5fea0dd" y="283.791563"/>
     </g>
    </g>
    <g id="text_16">
     <!-- VAE MAP -->
     <defs>
      <path d="M 19.671875 64.796875 
L 19.671875 37.40625 
L 32.078125 37.40625 
Q 38.96875 37.40625 42.71875 40.96875 
Q 46.484375 44.53125 46.484375 51.125 
Q 46.484375 57.671875 42.71875 61.234375 
Q 38.96875 64.796875 32.078125 64.796875 
z
M 9.8125 72.90625 
L 32.078125 72.90625 
Q 44.34375 72.90625 50.609375 67.359375 
Q 56.890625 61.8125 56.890625 51.125 
Q 56.890625 40.328125 50.609375 34.8125 
Q 44.34375 29.296875 32.078125 29.296875 
L 19.671875 29.296875 
L 19.671875 0 
L 9.8125 0 
z
" id="DejaVuSans-80"/>
     </defs>
     <g transform="translate(348.064062 287.291563)scale(0.1 -0.1)">
      <use xlink:href="#DejaVuSans-86"/>
      <use x="62.033203" xlink:href="#DejaVuSans-65"/>
      <use x="130.441406" xlink:href="#DejaVuSans-69"/>
      <use x="193.625" xlink:href="#DejaVuSans-32"/>
      <use x="225.412109" xlink:href="#DejaVuSans-77"/>
      <use x="311.691406" xlink:href="#DejaVuSans-65"/>
      <use x="380.099609" xlink:href="#DejaVuSans-80"/>
     </g>
    </g>
    <g id="line2d_95">
     <path d="M 320.064062 298.469688 
L 340.064062 298.469688 
" style="fill:none;stroke:#1f77b4;stroke-dasharray:5.55,2.4;stroke-dashoffset:0;stroke-width:1.5;"/>
    </g>
    <g id="line2d_96">
     <g>
      <use style="fill-opacity:0;stroke:#1f77b4;stroke-linejoin:miter;" x="330.064062" xlink:href="#m3fa7883c23" y="298.469688"/>
     </g>
    </g>
    <g id="text_17">
     <!-- C-RVAE MAP -->
     <g transform="translate(348.064062 301.969688)scale(0.1 -0.1)">
      <use xlink:href="#DejaVuSans-67"/>
      <use x="69.824219" xlink:href="#DejaVuSans-45"/>
      <use x="105.908203" xlink:href="#DejaVuSans-82"/>
      <use x="169.890625" xlink:href="#DejaVuSans-86"/>
      <use x="231.923828" xlink:href="#DejaVuSans-65"/>
      <use x="300.332031" xlink:href="#DejaVuSans-69"/>
      <use x="363.515625" xlink:href="#DejaVuSans-32"/>
      <use x="395.302734" xlink:href="#DejaVuSans-77"/>
      <use x="481.582031" xlink:href="#DejaVuSans-65"/>
      <use x="549.990234" xlink:href="#DejaVuSans-80"/>
     </g>
    </g>
    <g id="line2d_97">
     <path d="M 320.064062 313.147813 
L 340.064062 313.147813 
" style="fill:none;stroke:#1f77b4;stroke-dasharray:5.55,2.4;stroke-dashoffset:0;stroke-width:1.5;"/>
    </g>
    <g id="line2d_98">
     <g>
      <use style="fill-opacity:0;stroke:#1f77b4;stroke-linejoin:miter;" x="330.064062" xlink:href="#m4e35fde979" y="313.147813"/>
     </g>
    </g>
    <g id="text_18">
     <!-- NC-RVAE MAP -->
     <defs>
      <path d="M 9.8125 72.90625 
L 23.09375 72.90625 
L 55.421875 11.921875 
L 55.421875 72.90625 
L 64.984375 72.90625 
L 64.984375 0 
L 51.703125 0 
L 19.390625 60.984375 
L 19.390625 0 
L 9.8125 0 
z
" id="DejaVuSans-78"/>
     </defs>
     <g transform="translate(348.064062 316.647813)scale(0.1 -0.1)">
      <use xlink:href="#DejaVuSans-78"/>
      <use x="74.804688" xlink:href="#DejaVuSans-67"/>
      <use x="144.628906" xlink:href="#DejaVuSans-45"/>
      <use x="180.712891" xlink:href="#DejaVuSans-82"/>
      <use x="244.695312" xlink:href="#DejaVuSans-86"/>
      <use x="306.728516" xlink:href="#DejaVuSans-65"/>
      <use x="375.136719" xlink:href="#DejaVuSans-69"/>
      <use x="438.320312" xlink:href="#DejaVuSans-32"/>
      <use x="470.107422" xlink:href="#DejaVuSans-77"/>
      <use x="556.386719" xlink:href="#DejaVuSans-65"/>
      <use x="624.794922" xlink:href="#DejaVuSans-80"/>
     </g>
    </g>
    <g id="line2d_99">
     <path d="M 320.064062 327.825938 
L 340.064062 327.825938 
" style="fill:none;stroke:#ff7f0e;stroke-dasharray:1.5,2.475;stroke-dashoffset:0;stroke-width:1.5;"/>
    </g>
    <g id="line2d_100">
     <g>
      <use style="fill-opacity:0;stroke:#ff7f0e;" x="330.064062" xlink:href="#m00d6c691d8" y="327.825938"/>
     </g>
    </g>
    <g id="text_19">
     <!-- VAE variational -->
     <defs>
      <path d="M 2.984375 54.6875 
L 12.5 54.6875 
L 29.59375 8.796875 
L 46.6875 54.6875 
L 56.203125 54.6875 
L 35.6875 0 
L 23.484375 0 
z
" id="DejaVuSans-118"/>
      <path d="M 9.421875 75.984375 
L 18.40625 75.984375 
L 18.40625 0 
L 9.421875 0 
z
" id="DejaVuSans-108"/>
     </defs>
     <g transform="translate(348.064062 331.325938)scale(0.1 -0.1)">
      <use xlink:href="#DejaVuSans-86"/>
      <use x="62.033203" xlink:href="#DejaVuSans-65"/>
      <use x="130.441406" xlink:href="#DejaVuSans-69"/>
      <use x="193.625" xlink:href="#DejaVuSans-32"/>
      <use x="225.412109" xlink:href="#DejaVuSans-118"/>
      <use x="284.591797" xlink:href="#DejaVuSans-97"/>
      <use x="345.871094" xlink:href="#DejaVuSans-114"/>
      <use x="386.984375" xlink:href="#DejaVuSans-105"/>
      <use x="414.767578" xlink:href="#DejaVuSans-97"/>
      <use x="476.046875" xlink:href="#DejaVuSans-116"/>
      <use x="515.255859" xlink:href="#DejaVuSans-105"/>
      <use x="543.039062" xlink:href="#DejaVuSans-111"/>
      <use x="604.220703" xlink:href="#DejaVuSans-110"/>
      <use x="667.599609" xlink:href="#DejaVuSans-97"/>
      <use x="728.878906" xlink:href="#DejaVuSans-108"/>
     </g>
    </g>
    <g id="line2d_101">
     <path d="M 320.064062 342.504063 
L 340.064062 342.504063 
" style="fill:none;stroke:#ff7f0e;stroke-dasharray:1.5,2.475;stroke-dashoffset:0;stroke-width:1.5;"/>
    </g>
    <g id="line2d_102">
     <g>
      <use style="fill-opacity:0;stroke:#ff7f0e;stroke-linejoin:miter;" x="330.064062" xlink:href="#m9581133c57" y="342.504063"/>
     </g>
    </g>
    <g id="text_20">
     <!-- C-RVAE variational -->
     <g transform="translate(348.064062 346.004063)scale(0.1 -0.1)">
      <use xlink:href="#DejaVuSans-67"/>
      <use x="69.824219" xlink:href="#DejaVuSans-45"/>
      <use x="105.908203" xlink:href="#DejaVuSans-82"/>
      <use x="169.890625" xlink:href="#DejaVuSans-86"/>
      <use x="231.923828" xlink:href="#DejaVuSans-65"/>
      <use x="300.332031" xlink:href="#DejaVuSans-69"/>
      <use x="363.515625" xlink:href="#DejaVuSans-32"/>
      <use x="395.302734" xlink:href="#DejaVuSans-118"/>
      <use x="454.482422" xlink:href="#DejaVuSans-97"/>
      <use x="515.761719" xlink:href="#DejaVuSans-114"/>
      <use x="556.875" xlink:href="#DejaVuSans-105"/>
      <use x="584.658203" xlink:href="#DejaVuSans-97"/>
      <use x="645.9375" xlink:href="#DejaVuSans-116"/>
      <use x="685.146484" xlink:href="#DejaVuSans-105"/>
      <use x="712.929688" xlink:href="#DejaVuSans-111"/>
      <use x="774.111328" xlink:href="#DejaVuSans-110"/>
      <use x="837.490234" xlink:href="#DejaVuSans-97"/>
      <use x="898.769531" xlink:href="#DejaVuSans-108"/>
     </g>
    </g>
    <g id="line2d_103">
     <path d="M 320.064062 357.182188 
L 340.064062 357.182188 
" style="fill:none;stroke:#ff7f0e;stroke-dasharray:1.5,2.475;stroke-dashoffset:0;stroke-width:1.5;"/>
    </g>
    <g id="line2d_104">
     <g>
      <use style="fill-opacity:0;stroke:#ff7f0e;stroke-linejoin:miter;" x="330.064062" xlink:href="#m6581011069" y="357.182188"/>
     </g>
    </g>
    <g id="text_21">
     <!-- NC-RVAE variational -->
     <g transform="translate(348.064062 360.682188)scale(0.1 -0.1)">
      <use xlink:href="#DejaVuSans-78"/>
      <use x="74.804688" xlink:href="#DejaVuSans-67"/>
      <use x="144.628906" xlink:href="#DejaVuSans-45"/>
      <use x="180.712891" xlink:href="#DejaVuSans-82"/>
      <use x="244.695312" xlink:href="#DejaVuSans-86"/>
      <use x="306.728516" xlink:href="#DejaVuSans-65"/>
      <use x="375.136719" xlink:href="#DejaVuSans-69"/>
      <use x="438.320312" xlink:href="#DejaVuSans-32"/>
      <use x="470.107422" xlink:href="#DejaVuSans-118"/>
      <use x="529.287109" xlink:href="#DejaVuSans-97"/>
      <use x="590.566406" xlink:href="#DejaVuSans-114"/>
      <use x="631.679688" xlink:href="#DejaVuSans-105"/>
      <use x="659.462891" xlink:href="#DejaVuSans-97"/>
      <use x="720.742188" xlink:href="#DejaVuSans-116"/>
      <use x="759.951172" xlink:href="#DejaVuSans-105"/>
      <use x="787.734375" xlink:href="#DejaVuSans-111"/>
      <use x="848.916016" xlink:href="#DejaVuSans-110"/>
      <use x="912.294922" xlink:href="#DejaVuSans-97"/>
      <use x="973.574219" xlink:href="#DejaVuSans-108"/>
     </g>
    </g>
    <g id="line2d_105">
     <path d="M 320.064062 371.860313 
L 340.064062 371.860313 
" style="fill:none;stroke:#000000;stroke-linecap:square;stroke-width:1.5;"/>
    </g>
    <g id="line2d_106"/>
    <g id="text_22">
     <!-- noisy -->
     <defs>
      <path d="M 32.171875 -5.078125 
Q 28.375 -14.84375 24.75 -17.8125 
Q 21.140625 -20.796875 15.09375 -20.796875 
L 7.90625 -20.796875 
L 7.90625 -13.28125 
L 13.1875 -13.28125 
Q 16.890625 -13.28125 18.9375 -11.515625 
Q 21 -9.765625 23.484375 -3.21875 
L 25.09375 0.875 
L 2.984375 54.6875 
L 12.5 54.6875 
L 29.59375 11.921875 
L 46.6875 54.6875 
L 56.203125 54.6875 
z
" id="DejaVuSans-121"/>
     </defs>
     <g transform="translate(348.064062 375.360313)scale(0.1 -0.1)">
      <use xlink:href="#DejaVuSans-110"/>
      <use x="63.378906" xlink:href="#DejaVuSans-111"/>
      <use x="124.560547" xlink:href="#DejaVuSans-105"/>
      <use x="152.34375" xlink:href="#DejaVuSans-115"/>
      <use x="204.443359" xlink:href="#DejaVuSans-121"/>
     </g>
    </g>
   </g>
  </g>
 </g>
 <defs>
  <clipPath id="pe1f4326c64">
   <rect height="361" width="424.73" x="32.47" y="25.44"/>
  </clipPath>
 </defs>
</svg>
